<svg width="400" height="200" viewBox="0 0 400 200" fill="none" xmlns="http://www.w3.org/2000/svg">
<path d="M18.8223 110.118V107.875H32.9551V7.24778H20.1071C16.3384 7.24778 13.2763 7.94853 10.9208 9.35002C8.56533 10.7048 6.7452 12.6669 5.4604 15.2363C4.1756 17.8057 3.27624 20.889 2.76232 24.4862C2.29123 28.0834 2.05568 32.101 2.05568 36.5391H0V5.00537H78.1801V36.5391H76.1244C76.1244 32.101 75.8674 28.0834 75.3535 24.4862C74.8824 20.889 73.983 17.8057 72.6554 15.2363C71.3706 12.6669 69.5505 10.7048 67.195 9.35002C64.8396 7.94853 61.7774 7.24778 58.0087 7.24778H45.1607V107.875H59.2935V110.118H18.8223Z" fill="#B30000"/>
<path d="M121.419 5.00537C130.926 5.00537 139.127 7.31785 146.022 11.9428C152.96 16.521 158.292 22.7811 162.018 30.7229C165.787 38.6647 167.671 47.6109 167.671 57.5616C167.671 65.0362 166.558 71.9737 164.331 78.3738C162.104 84.7273 158.935 90.2866 154.823 95.0517C150.712 99.8168 145.808 103.531 140.112 106.194C134.459 108.81 128.228 110.118 121.419 110.118H85.4442V107.875H97.0074V7.24778H85.4442V5.00537H121.419ZM109.277 107.875H121.419C127.329 107.875 132.297 106.474 136.322 103.671C140.348 100.868 143.581 97.0839 146.022 92.3188C148.464 87.5069 150.219 82.1112 151.29 76.1314C152.361 70.105 152.896 63.915 152.896 57.5616C152.896 51.2081 152.297 45.0415 151.097 39.0618C149.898 33.0354 148.035 27.6396 145.509 22.8745C142.982 18.0627 139.727 14.2553 135.744 11.4523C131.761 8.64927 126.986 7.24778 121.419 7.24778H109.277V107.875Z" fill="#B30000"/>
<path d="M224.614 111.519L188.897 5.00537H201.231L230.91 92.529L258.854 5.00537H261.038L227.184 111.519H224.614ZM189.989 5.00537V107.875H199.56V110.118H178.682V107.875H187.805V7.24778H178.04V5.00537H189.989ZM281.659 5.00537V7.24778H272.666V107.875H281.659V110.118H250.117V107.875H260.46V5.00537H281.659Z" fill="#B30000"/>
<path d="M340.491 0.542575C335.381 1.52501 329.825 3.79478 325.444 6.67434C322.397 8.70697 316.207 15.2453 314.238 18.4636C312.175 21.8852 310.334 25.6117 309.509 27.9492C309.128 29.0672 308.715 30.1174 308.588 30.3206C308.048 31.032 306.683 36.9944 306.302 40.0434C305.731 45.0911 306.334 52.9506 307.731 57.7611C309.064 62.3345 309.889 64.5027 311.35 67.4161C314.556 73.6834 318.365 79.1038 323.222 84.3547C330.143 91.8416 336.492 96.5505 344.206 99.9043C345.888 100.616 348.078 101.835 349.094 102.547C350.142 103.292 351.316 104.037 351.729 104.173C352.142 104.308 352.999 104.918 353.634 105.494C354.269 106.104 355.57 107.154 356.554 107.832C358.491 109.119 366.014 116.199 368.935 119.451C373.665 124.77 379.315 134.29 381.093 139.981C382.871 145.672 383.315 148.484 383.315 153.295C383.284 158.851 382.712 161.561 380.553 166.236C378.871 169.928 374.808 174.637 370.998 177.348C367.348 179.922 361.919 182.395 357.824 183.344C354.904 184.021 353.57 184.123 347.634 184.123C341.253 184.123 340.555 184.055 337 183.141C329.666 181.311 325.889 179.109 321.667 174.299C316.588 168.506 313.699 158.715 314.619 150.551C315.254 144.927 316.683 140.557 319.127 136.729C320.905 133.951 323.222 131.105 323.698 131.105C323.921 131.105 324.238 130.902 324.365 130.665C324.81 129.92 328.936 127.379 329.73 127.379C329.92 127.379 330.524 127.142 331.063 126.871C333.92 125.346 343.253 124.669 348.586 125.583C352.84 126.295 357.284 128.226 360.173 130.597C363.094 132.968 364.967 135.442 367.03 139.575C368.3 142.115 368.744 141.641 368.713 137.881C368.617 129.953 363.983 121.958 356.777 117.283C348.11 111.66 340.396 109.254 333.857 110.135C328.841 110.813 322.079 113.76 316.746 117.622C309.509 122.839 302.715 133.206 300.525 142.42C297.477 154.955 299.699 169.048 306.429 179.888C308.27 182.903 313.572 188.358 316.778 190.594C322.302 194.422 328.778 197.335 334.428 198.487C336.333 198.893 337.984 199.3 338.142 199.368C338.904 199.876 350.555 200.215 354.935 199.842C357.792 199.605 361.094 199.131 362.872 198.656C363.316 198.555 364.237 198.318 364.935 198.182C369.824 197.064 376.331 194.489 378.871 192.66C390.299 184.496 397.6 171.487 399.696 155.666C401.632 140.862 394.299 124.465 378.585 108.475C375.284 105.121 366.681 97.3974 361.761 93.3322C360.205 92.0448 357.697 89.9106 356.205 88.5894C354.713 87.2682 350.936 83.9821 347.793 81.2719C332.238 67.992 326.365 59.0146 325.095 46.8188C324.206 38.1124 327.032 25.8827 331.571 18.6669C332.968 16.431 335.92 13.8563 338.015 13.0094C340.523 11.9592 345.158 12.1286 348.682 13.3481C353.221 14.9404 358.618 18.7007 363.411 23.6129L365.697 25.9505L365.506 30.3206C365.221 37.3671 366.554 42.9568 369.76 48.2755C370.554 49.5629 371.728 51.5277 372.363 52.6118C374.141 55.6946 375.157 56.8126 376.712 57.4562C378.807 58.3032 379.792 57.8628 381.188 55.4914C382.299 53.5604 382.331 53.4587 382.649 48.3772L382.966 43.2278L381.791 42.1776C381.093 41.5678 380.649 40.8564 380.649 40.3821C380.649 39.4675 380.903 39.4336 381.791 40.3483C382.363 40.9242 382.617 40.9919 383.157 40.687C383.506 40.4499 383.918 39.9079 384.014 39.4336C384.49 37.3671 383.918 35.4361 380.776 28.7961C374.617 15.8889 369.919 9.75717 362.364 4.84498C355.761 0.576452 348.237 -0.914144 340.491 0.542575Z" fill="#B30000"/>
</svg>
